<svg width="129" height="143" viewBox="0 0 129 143" fill="none" xmlns="http://www.w3.org/2000/svg">
<rect x="19.4934" y="1.60352" width="89.531" height="101.18" fill="#7FB2AC" stroke="#29454D" stroke-width="2"/>
<path d="M29.2107 26.9185C29.2107 24.7093 31.0016 22.9185 33.2107 22.9185H70.5436C72.7527 22.9185 74.5436 24.7093 74.5436 26.9185V102.783H29.2107V26.9185Z" fill="white" stroke="#29454D" stroke-width="2"/>
<path d="M47.2038 48.823H44.8743L50.1086 34.2775H52.6442L57.8785 48.823H55.549L51.4368 36.9196H51.3231L47.2038 48.823ZM47.5944 43.127H55.1513V44.9735H47.5944V43.127Z" fill="#19888C"/>
<path d="M35.2979 62.9563C35.2979 62.404 35.7456 61.9563 36.2979 61.9563H39.0276H41.7573C42.3096 61.9563 42.7573 62.404 42.7573 62.9563V76.3966C42.7573 76.9489 42.3096 77.3966 41.7573 77.3966H39.0276H36.2979C35.7456 77.3966 35.2979 76.9489 35.2979 76.3966V62.9563Z" fill="#7FB2AC"/>
<path d="M39.0276 57.9521V61.9563M39.0276 61.9563H36.2979C35.7456 61.9563 35.2979 62.404 35.2979 62.9563V76.3966C35.2979 76.9489 35.7456 77.3966 36.2979 77.3966H39.0276M39.0276 61.9563H41.7573C42.3096 61.9563 42.7573 62.404 42.7573 62.9563V76.3966C42.7573 76.9489 42.3096 77.3966 41.7573 77.3966H39.0276M39.0276 77.3966V81.9008" stroke="#29454D" stroke-width="2" stroke-linecap="round"/>
<rect x="80.0669" y="48.3518" width="20.5327" height="25.0788" rx="3" fill="#19888C" stroke="#29454D" stroke-width="2"/>
<path d="M87.4283 58.5655C87.4283 59.4661 86.6983 60.1962 85.7977 60.1962C84.8971 60.1962 84.167 59.4661 84.167 58.5655C84.167 57.6649 84.8971 56.9348 85.7977 56.9348C86.6983 56.9348 87.4283 57.6649 87.4283 58.5655Z" fill="#29454D"/>
<path d="M87.3285 63.4305C87.3285 64.3311 86.5984 65.0612 85.6978 65.0612C84.7972 65.0612 84.0671 64.3311 84.0671 63.4305C84.0671 62.5299 84.7972 61.7998 85.6978 61.7998C86.5984 61.7998 87.3285 62.5299 87.3285 63.4305Z" fill="#29454D"/>
<path d="M87.3282 68.296C87.3282 69.1966 86.5982 69.9266 85.6976 69.9266C84.797 69.9266 84.0669 69.1966 84.0669 68.296C84.0669 67.3954 84.797 66.6653 85.6976 66.6653C86.5982 66.6653 87.3282 67.3954 87.3282 68.296Z" fill="#29454D"/>
<path d="M92.0636 58.5655C92.0636 59.4661 91.3335 60.1962 90.4329 60.1962C89.5323 60.1962 88.8022 59.4661 88.8022 58.5655C88.8022 57.6649 89.5323 56.9348 90.4329 56.9348C91.3335 56.9348 92.0636 57.6649 92.0636 58.5655Z" fill="#29454D"/>
<path d="M91.9637 63.4305C91.9637 64.3311 91.2337 65.0612 90.3331 65.0612C89.4325 65.0612 88.7024 64.3311 88.7024 63.4305C88.7024 62.5299 89.4325 61.7998 90.3331 61.7998C91.2337 61.7998 91.9637 62.5299 91.9637 63.4305Z" fill="#29454D"/>
<path d="M91.9635 68.296C91.9635 69.1966 91.2334 69.9266 90.3328 69.9266C89.4322 69.9266 88.7021 69.1966 88.7021 68.296C88.7021 67.3954 89.4322 66.6653 90.3328 66.6653C91.2334 66.6653 91.9635 67.3954 91.9635 68.296Z" fill="#29454D"/>
<path d="M96.6991 58.5655C96.6991 59.4661 95.969 60.1962 95.0684 60.1962C94.1678 60.1962 93.4377 59.4661 93.4377 58.5655C93.4377 57.6649 94.1678 56.9348 95.0684 56.9348C95.969 56.9348 96.6991 57.6649 96.6991 58.5655Z" fill="#29454D"/>
<path d="M96.5995 63.4305C96.5995 64.3311 95.8694 65.0612 94.9688 65.0612C94.0682 65.0612 93.3381 64.3311 93.3381 63.4305C93.3381 62.5299 94.0682 61.7998 94.9688 61.7998C95.8694 61.7998 96.5995 62.5299 96.5995 63.4305Z" fill="#29454D"/>
<path d="M96.5992 68.296C96.5992 69.1966 95.8692 69.9266 94.9686 69.9266C94.068 69.9266 93.3379 69.1966 93.3379 68.296C93.3379 67.3954 94.068 66.6653 94.9686 66.6653C95.8692 66.6653 96.5992 67.3954 96.5992 68.296Z" fill="#29454D"/>
<path d="M86.022 53.664C86.022 52.8518 86.6804 52.1934 87.4926 52.1934H93.7523C94.5645 52.1934 95.2229 52.8518 95.2229 53.664C95.2229 54.4762 94.5645 55.1346 93.7523 55.1346H87.4926C86.6804 55.1346 86.022 54.4762 86.022 53.664Z" fill="#29454D"/>
<circle cx="90.433" cy="35.5541" r="7.30675" fill="white" stroke="#29454D" stroke-width="2"/>
<path d="M3.08549 137.783H0.755948L5.99032 123.238H8.52583L13.7602 137.783H11.4307L7.31845 125.88H7.20481L3.08549 137.783ZM3.47612 132.087H11.0329V133.934H3.47612V132.087ZM17.8138 123.238V137.783H15.6903V123.238H17.8138ZM20.6707 141.874V126.874H22.7446V128.643H22.9221C23.0452 128.415 23.2228 128.153 23.4548 127.854C23.6868 127.556 24.0088 127.296 24.4207 127.073C24.8327 126.846 25.3772 126.732 26.0542 126.732C26.9349 126.732 27.7209 126.955 28.4122 127.4C29.1035 127.845 29.6456 128.486 30.0386 129.324C30.4363 130.163 30.6352 131.171 30.6352 132.35C30.6352 133.529 30.4387 134.54 30.0457 135.383C29.6527 136.221 29.113 136.867 28.4264 137.322C27.7398 137.771 26.9562 137.996 26.0756 137.996C25.4127 137.996 24.8705 137.885 24.4491 137.663C24.0325 137.44 23.7058 137.18 23.469 136.881C23.2323 136.583 23.05 136.318 22.9221 136.086H22.7943V141.874H20.6707ZM22.7517 132.329C22.7517 133.096 22.863 133.768 23.0855 134.346C23.308 134.923 23.63 135.376 24.0514 135.702C24.4728 136.024 24.9889 136.185 25.5997 136.185C26.2342 136.185 26.7645 136.017 27.1906 135.681C27.6167 135.34 27.9387 134.878 28.1565 134.296C28.3791 133.714 28.4903 133.058 28.4903 132.329C28.4903 131.609 28.3814 130.963 28.1636 130.39C27.9506 129.817 27.6286 129.365 27.1977 129.033C26.7716 128.702 26.2389 128.536 25.5997 128.536C24.9842 128.536 24.4633 128.695 24.0372 129.012C23.6158 129.329 23.2962 129.772 23.0784 130.34C22.8606 130.908 22.7517 131.571 22.7517 132.329ZM35.1381 131.306V137.783H33.0145V123.238H35.1096V128.65H35.2446C35.5003 128.063 35.8909 127.596 36.4165 127.251C36.942 126.905 37.6286 126.732 38.4761 126.732C39.2242 126.732 39.8776 126.886 40.4363 127.194C40.9998 127.502 41.4354 127.961 41.7432 128.572C42.0557 129.178 42.2119 129.935 42.2119 130.844V137.783H40.0883V131.1C40.0883 130.3 39.8824 129.68 39.4704 129.239C39.0585 128.794 38.4856 128.572 37.7517 128.572C37.2498 128.572 36.8 128.678 36.4023 128.891C36.0093 129.104 35.6991 129.417 35.4719 129.829C35.2493 130.236 35.1381 130.728 35.1381 131.306ZM48.2204 138.025C47.5291 138.025 46.9041 137.897 46.3454 137.641C45.7867 137.381 45.344 137.004 45.0173 136.512C44.6953 136.02 44.5344 135.416 44.5344 134.701C44.5344 134.085 44.6527 133.579 44.8895 133.181C45.1262 132.783 45.4458 132.468 45.8483 132.236C46.2507 132.004 46.7006 131.829 47.1977 131.711C47.6949 131.592 48.2015 131.503 48.7176 131.441C49.371 131.365 49.9013 131.304 50.3085 131.256C50.7157 131.204 51.0116 131.121 51.1963 131.008C51.3809 130.894 51.4733 130.709 51.4733 130.454V130.404C51.4733 129.784 51.2981 129.303 50.9477 128.962C50.6021 128.621 50.086 128.451 49.3994 128.451C48.6845 128.451 48.121 128.61 47.7091 128.927C47.3019 129.239 47.0202 129.587 46.8639 129.971L44.8682 129.516C45.1049 128.853 45.4506 128.318 45.9051 127.911C46.3644 127.499 46.8923 127.201 47.4889 127.016C48.0855 126.827 48.7129 126.732 49.371 126.732C49.8066 126.732 50.2683 126.784 50.7559 126.888C51.2484 126.988 51.7077 127.172 52.1338 127.442C52.5647 127.712 52.9174 128.098 53.192 128.6C53.4666 129.097 53.604 129.744 53.604 130.539V137.783H51.5301V136.292H51.4449C51.3076 136.566 51.1016 136.836 50.827 137.101C50.5523 137.367 50.1996 137.587 49.7687 137.762C49.3379 137.937 48.8218 138.025 48.2204 138.025ZM48.6821 136.32C49.2692 136.32 49.7711 136.204 50.1878 135.972C50.6092 135.74 50.9288 135.437 51.1466 135.063C51.3691 134.684 51.4804 134.28 51.4804 133.849V132.442C51.4046 132.518 51.2578 132.589 51.04 132.655C50.827 132.717 50.5831 132.771 50.3085 132.819C50.0339 132.861 49.7664 132.902 49.5059 132.94C49.2455 132.973 49.0277 133.001 48.8525 133.025C48.4406 133.077 48.0642 133.164 47.7233 133.288C47.3871 133.411 47.1172 133.588 46.9136 133.82C46.7148 134.047 46.6153 134.351 46.6153 134.729C46.6153 135.255 46.8095 135.653 47.1977 135.922C47.586 136.188 48.0808 136.32 48.6821 136.32ZM61.8959 137.783V123.238H67.2226C68.2548 123.238 69.1094 123.408 69.7865 123.749C70.4636 124.085 70.9702 124.542 71.3064 125.12C71.6425 125.693 71.8106 126.339 71.8106 127.059C71.8106 127.665 71.6994 128.176 71.4768 128.593C71.2543 129.005 70.956 129.336 70.5819 129.587C70.2126 129.833 69.8054 130.013 69.3604 130.127V130.269C69.8433 130.293 70.3144 130.449 70.7737 130.738C71.2377 131.022 71.6212 131.427 71.9243 131.952C72.2273 132.478 72.3788 133.117 72.3788 133.87C72.3788 134.613 72.2036 135.281 71.8532 135.873C71.5076 136.46 70.9726 136.926 70.2481 137.272C69.5237 137.613 68.598 137.783 67.4711 137.783H61.8959ZM64.0905 135.901H67.2581C68.3092 135.901 69.0621 135.698 69.5166 135.29C69.9711 134.883 70.1984 134.374 70.1984 133.763C70.1984 133.304 70.0824 132.883 69.8504 132.499C69.6184 132.116 69.287 131.81 68.8561 131.583C68.43 131.356 67.9233 131.242 67.3362 131.242H64.0905V135.901ZM64.0905 129.53H67.0308C67.5232 129.53 67.9659 129.436 68.3589 129.246C68.7567 129.057 69.0715 128.792 69.3035 128.451C69.5403 128.105 69.6586 127.698 69.6586 127.229C69.6586 126.628 69.4479 126.124 69.0265 125.717C68.6051 125.309 67.9588 125.106 67.0876 125.106H64.0905V129.53ZM81.7219 133.259V126.874H83.8525V137.783H81.7645V135.894H81.6508C81.3999 136.476 80.9974 136.962 80.4434 137.35C79.8942 137.734 79.21 137.925 78.3909 137.925C77.6901 137.925 77.0699 137.771 76.5301 137.464C75.9951 137.151 75.5737 136.69 75.2659 136.079C74.9629 135.468 74.8113 134.713 74.8113 133.813V126.874H76.9349V133.557C76.9349 134.301 77.1409 134.893 77.5528 135.333C77.9648 135.773 78.4998 135.994 79.1579 135.994C79.5557 135.994 79.951 135.894 80.344 135.695C80.7417 135.496 81.0708 135.196 81.3312 134.793C81.5964 134.391 81.7266 133.879 81.7219 133.259ZM88.8295 131.306V137.783H86.7059V126.874H88.7442V128.65H88.8792C89.1301 128.072 89.5231 127.608 90.0581 127.258C90.5979 126.907 91.2774 126.732 92.0965 126.732C92.8399 126.732 93.4909 126.888 94.0496 127.201C94.6083 127.509 95.0416 127.968 95.3493 128.579C95.6571 129.19 95.811 129.945 95.811 130.844V137.783H93.6874V131.1C93.6874 130.309 93.4814 129.691 93.0695 129.246C92.6576 128.797 92.0918 128.572 91.3721 128.572C90.8796 128.572 90.4417 128.678 90.0581 128.891C89.6794 129.104 89.3787 129.417 89.1562 129.829C88.9384 130.236 88.8295 130.728 88.8295 131.306ZM100.612 134.083L100.598 131.491H100.967L105.314 126.874H107.856L102.899 132.13H102.565L100.612 134.083ZM98.659 137.783V123.238H100.783V137.783H98.659ZM105.548 137.783L101.642 132.599L103.105 131.114L108.155 137.783H105.548ZM114.044 138.003C112.969 138.003 112.044 137.774 111.267 137.315C110.496 136.851 109.899 136.199 109.478 135.361C109.061 134.519 108.853 133.531 108.853 132.4C108.853 131.282 109.061 130.297 109.478 129.445C109.899 128.593 110.486 127.928 111.239 127.449C111.996 126.971 112.882 126.732 113.895 126.732C114.511 126.732 115.107 126.834 115.685 127.038C116.263 127.241 116.781 127.561 117.24 127.996C117.7 128.432 118.062 128.998 118.327 129.694C118.592 130.385 118.725 131.226 118.725 132.215V132.968H110.053V131.377H116.644C116.644 130.818 116.53 130.324 116.303 129.893C116.076 129.457 115.756 129.114 115.344 128.863C114.937 128.612 114.459 128.486 113.909 128.486C113.313 128.486 112.792 128.633 112.347 128.927C111.907 129.216 111.566 129.594 111.324 130.063C111.087 130.527 110.969 131.031 110.969 131.576V132.819C110.969 133.548 111.097 134.168 111.353 134.68C111.613 135.191 111.975 135.582 112.439 135.851C112.903 136.117 113.445 136.249 114.066 136.249C114.468 136.249 114.835 136.192 115.166 136.079C115.498 135.96 115.784 135.785 116.026 135.553C116.267 135.321 116.452 135.035 116.58 134.694L118.59 135.056C118.429 135.648 118.14 136.166 117.723 136.611C117.311 137.052 116.793 137.395 116.168 137.641C115.548 137.883 114.84 138.003 114.044 138.003ZM121.081 137.783V126.874H123.133V128.607H123.247C123.446 128.02 123.796 127.558 124.298 127.222C124.805 126.881 125.378 126.711 126.017 126.711C126.15 126.711 126.306 126.716 126.486 126.725C126.67 126.735 126.815 126.746 126.919 126.761V128.792C126.834 128.768 126.682 128.742 126.464 128.714C126.247 128.681 126.029 128.664 125.811 128.664C125.309 128.664 124.862 128.771 124.469 128.984C124.08 129.192 123.773 129.483 123.545 129.857C123.318 130.226 123.204 130.648 123.204 131.121V137.783H121.081Z" fill="#3FA7B8"/>
</svg>
